# xmcd
#
# Track frame offsets: 
#        150
#        19777
#        37172
#        50546
#        67546
#        83632
#        99304
#        119605
#        142703
#        177686
#        192296
#        202524
#        218892
#        238730
#        259136
#        275962
#        293869
#        314577
#
# Disc length: 4799 seconds
#
# Revision: 1
# Processed by: cddbd v1.5.2PL0 Copyright (c) Steve Scherf et al.
# Submitted via: ExactAudioCopy v1.0b3
#
DISCID=0b12bd12
DTITLE=Jah Wobble - Redux Disc A
DYEAR=2015
DGENRE=Alternative
TTITLE0=Jah Wobble's Invaders Of The Heart - Visions Of You [Radio Edi
TTITLE0=t]
TTITLE1=Jah Wobble's Invaders Of The Heart - Visions Of You [New Versi
TTITLE1=on]
TTITLE2=Public Image Limited - Public Image
TTITLE3=Jah Wobble's Invaders Of The Heart - Merry Go Round
TTITLE4=Jah Wobble and Julie Campbell - Tightrope
TTITLE5=Jah Wobble's Invaders Of The Heart - Becoming More Like God [R
TTITLE5=adio Edit]
TTITLE6=Jah Wobble's Invaders Of The Heart - Becoming More Like God [N
TTITLE6=ew Version]
TTITLE7=Jah Wobble - Samsara
TTITLE8=Public Image Limited - Poptones
TTITLE9=Jah Wobble's Invaders Of The Heart - Amor
TTITLE10=Jah Wobble's Invaders Of The Heart - Amor Dub
TTITLE11=Jah Wobble's Invaders Of The Heart - Let's Go Psycho
TTITLE12=Jah Wobble and The English Roots Band - One Day
TTITLE13=Public Image Limited - Careering
TTITLE14=Jah Wobble and Keith Levene - Yin And Yang
TTITLE15=Jah Wobble - Desolation
TTITLE16=Jah Wobble and Julie Campbell - Feel [Remix]
TTITLE17=Jah Wobble - Buddha Of Compassion
EXTD=
EXTT0=
EXTT1=
EXTT2=
EXTT3=
EXTT4=
EXTT5=
EXTT6=
EXTT7=
EXTT8=
EXTT9=
EXTT10=
EXTT11=
EXTT12=
EXTT13=
EXTT14=
EXTT15=
EXTT16=
EXTT17=
PLAYORDER=
